<svg width="90" height="21" viewBox="0 0 90 21" fill="none" xmlns="http://www.w3.org/2000/svg">
<path d="M4.05 1.181C4.14 1.127 4.275 1.1 4.455 1.1H7.722C7.812 1.1 7.884 1.136 7.938 1.208C8.01 1.262 8.046 1.334 8.046 1.424V19.676C8.046 19.766 8.01 19.847 7.938 19.919C7.884 19.973 7.812 20 7.722 20H4.563C4.473 20 4.392 19.973 4.32 19.919C4.266 19.847 4.239 19.766 4.239 19.676V4.88C4.239 4.844 4.221 4.808 4.185 4.772C4.149 4.736 4.113 4.727 4.077 4.745L1.404 5.474L1.296 5.501C1.134 5.501 1.053 5.402 1.053 5.204L0.972 2.882C0.972 2.702 1.053 2.576 1.215 2.504L4.05 1.181ZM22.2619 4.529C22.5679 5.267 22.7209 6.149 22.7209 7.175V15.302C22.7209 16.274 22.4689 17.138 21.9649 17.894C21.4609 18.632 20.7499 19.208 19.8319 19.622C18.9139 20.018 17.8609 20.216 16.6729 20.216C15.5029 20.216 14.4679 20.018 13.5679 19.622C12.6679 19.208 11.9659 18.641 11.4619 17.921C10.9579 17.183 10.7059 16.337 10.7059 15.383V14.627C10.7059 14.537 10.7329 14.465 10.7869 14.411C10.8589 14.339 10.9399 14.303 11.0299 14.303H14.1889C14.2789 14.303 14.3509 14.339 14.4049 14.411C14.4769 14.465 14.5129 14.537 14.5129 14.627V14.87C14.5129 15.464 14.7109 15.959 15.1069 16.355C15.5209 16.751 16.0429 16.949 16.6729 16.949C17.3389 16.949 17.8789 16.751 18.2929 16.355C18.7069 15.941 18.9139 15.419 18.9139 14.789V12.278C18.9139 12.224 18.8959 12.188 18.8599 12.17C18.8239 12.152 18.7879 12.161 18.7519 12.197C18.0139 12.827 17.0419 13.142 15.8359 13.142C14.7559 13.142 13.7839 12.899 12.9199 12.413C12.0739 11.909 11.4079 11.189 10.9219 10.253C10.4719 9.407 10.2469 8.372 10.2469 7.148C10.2469 6.086 10.4269 5.15 10.7869 4.34C11.2369 3.278 11.9569 2.441 12.9469 1.829C13.9549 1.217 15.1339 0.911 16.4839 0.911C17.8519 0.911 19.0399 1.235 20.0479 1.883C21.0739 2.513 21.8119 3.395 22.2619 4.529ZM16.4839 9.956C17.4199 9.956 18.0949 9.587 18.5089 8.849C18.7789 8.381 18.9139 7.778 18.9139 7.04C18.9139 6.446 18.7969 5.897 18.5629 5.393C18.1669 4.601 17.4829 4.205 16.5109 4.205C15.5749 4.205 14.8909 4.601 14.4589 5.393C14.1889 5.897 14.0539 6.464 14.0539 7.094C14.0539 7.778 14.2069 8.372 14.5129 8.876C14.9629 9.596 15.6199 9.956 16.4839 9.956ZM31.5567 20.297C29.5767 20.297 28.0107 19.748 26.8587 18.65C25.7067 17.534 25.1307 16.022 25.1307 14.114V6.986C25.1307 5.114 25.7067 3.629 26.8587 2.531C28.0107 1.433 29.5767 0.884 31.5567 0.884C33.5367 0.884 35.1027 1.433 36.2547 2.531C37.4247 3.629 38.0097 5.114 38.0097 6.986V14.114C38.0097 16.022 37.4247 17.534 36.2547 18.65C35.1027 19.748 33.5367 20.297 31.5567 20.297ZM31.5567 17.03C32.3667 17.03 33.0057 16.787 33.4737 16.301C33.9597 15.797 34.2027 15.131 34.2027 14.303V6.878C34.2027 6.05 33.9597 5.393 33.4737 4.907C33.0057 4.403 32.3667 4.151 31.5567 4.151C30.7647 4.151 30.1257 4.403 29.6397 4.907C29.1717 5.393 28.9377 6.05 28.9377 6.878V14.303C28.9377 15.131 29.1717 15.797 29.6397 16.301C30.1257 16.787 30.7647 17.03 31.5567 17.03ZM52.3604 20.297C50.3804 20.297 48.8144 19.748 47.6624 18.65C46.5104 17.534 45.9344 16.022 45.9344 14.114V6.986C45.9344 5.114 46.5104 3.629 47.6624 2.531C48.8144 1.433 50.3804 0.884 52.3604 0.884C54.3404 0.884 55.9064 1.433 57.0584 2.531C58.2284 3.629 58.8134 5.114 58.8134 6.986V14.114C58.8134 16.022 58.2284 17.534 57.0584 18.65C55.9064 19.748 54.3404 20.297 52.3604 20.297ZM52.3604 17.03C53.1704 17.03 53.8094 16.787 54.2774 16.301C54.7634 15.797 55.0064 15.131 55.0064 14.303V6.878C55.0064 6.05 54.7634 5.393 54.2774 4.907C53.8094 4.403 53.1704 4.151 52.3604 4.151C51.5684 4.151 50.9294 4.403 50.4434 4.907C49.9754 5.393 49.7414 6.05 49.7414 6.878V14.303C49.7414 15.131 49.9754 15.797 50.4434 16.301C50.9294 16.787 51.5684 17.03 52.3604 17.03ZM67.7588 20.297C65.7788 20.297 64.2128 19.748 63.0608 18.65C61.9088 17.534 61.3328 16.022 61.3328 14.114V6.986C61.3328 5.114 61.9088 3.629 63.0608 2.531C64.2128 1.433 65.7788 0.884 67.7588 0.884C69.7388 0.884 71.3048 1.433 72.4568 2.531C73.6268 3.629 74.2118 5.114 74.2118 6.986V14.114C74.2118 16.022 73.6268 17.534 72.4568 18.65C71.3048 19.748 69.7388 20.297 67.7588 20.297ZM67.7588 17.03C68.5688 17.03 69.2078 16.787 69.6758 16.301C70.1618 15.797 70.4048 15.131 70.4048 14.303V6.878C70.4048 6.05 70.1618 5.393 69.6758 4.907C69.2078 4.403 68.5688 4.151 67.7588 4.151C66.9668 4.151 66.3278 4.403 65.8418 4.907C65.3738 5.393 65.1398 6.05 65.1398 6.878V14.303C65.1398 15.131 65.3738 15.797 65.8418 16.301C66.3278 16.787 66.9668 17.03 67.7588 17.03ZM83.1573 20.297C81.1773 20.297 79.6113 19.748 78.4593 18.65C77.3073 17.534 76.7313 16.022 76.7313 14.114V6.986C76.7313 5.114 77.3073 3.629 78.4593 2.531C79.6113 1.433 81.1773 0.884 83.1573 0.884C85.1373 0.884 86.7033 1.433 87.8553 2.531C89.0253 3.629 89.6103 5.114 89.6103 6.986V14.114C89.6103 16.022 89.0253 17.534 87.8553 18.65C86.7033 19.748 85.1373 20.297 83.1573 20.297ZM83.1573 17.03C83.9673 17.03 84.6063 16.787 85.0743 16.301C85.5603 15.797 85.8033 15.131 85.8033 14.303V6.878C85.8033 6.05 85.5603 5.393 85.0743 4.907C84.6063 4.403 83.9673 4.151 83.1573 4.151C82.3653 4.151 81.7263 4.403 81.2403 4.907C80.7723 5.393 80.5383 6.05 80.5383 6.878V14.303C80.5383 15.131 80.7723 15.797 81.2403 16.301C81.7263 16.787 82.3653 17.03 83.1573 17.03Z" fill="#1C62CD"/>
</svg>
