<svg width="147" height="37" viewBox="0 0 147 37" fill="none" xmlns="http://www.w3.org/2000/svg">
<path d="M11.7675 14H9.11321V3.50586H5.41302L5.1054 8.99023C5.01165 10.6895 4.66888 11.9697 4.07708 12.8311C3.49114 13.6865 2.58294 14.1143 1.35247 14.1143C0.948174 14.1143 0.628838 14.0732 0.394463 13.9912V11.6709C0.611259 11.7178 0.807549 11.7412 0.98333 11.7412C1.55169 11.7412 1.95892 11.5039 2.20501 11.0293C2.45696 10.5547 2.60931 9.81641 2.66204 8.81445L3.03997 1.31738H11.7675V14ZM21.5761 12.9014C20.7382 13.7686 19.6015 14.2021 18.1659 14.2021C16.7304 14.2021 15.5937 13.7656 14.7558 12.8926C13.9179 12.0195 13.499 10.8154 13.499 9.28027C13.499 7.7627 13.9208 6.56738 14.7646 5.69434C15.6142 4.81543 16.748 4.37598 18.1659 4.37598C19.5898 4.37598 20.7236 4.81543 21.5673 5.69434C22.4111 6.56738 22.8329 7.7627 22.8329 9.28027C22.8329 10.8213 22.414 12.0283 21.5761 12.9014ZM18.1659 12.2422C18.7988 12.2422 19.2997 11.9844 19.6689 11.4688C20.038 10.9531 20.2226 10.2266 20.2226 9.28906C20.2226 8.36328 20.038 7.63965 19.6689 7.11816C19.2997 6.59668 18.7988 6.33594 18.1659 6.33594C17.5331 6.33594 17.0292 6.59668 16.6542 7.11816C16.2851 7.63965 16.1005 8.36328 16.1005 9.28906C16.1005 10.2266 16.2851 10.9531 16.6542 11.4688C17.0234 11.9844 17.5273 12.2422 18.1659 12.2422ZM30.4794 12.0576V6.50293H27.6581L27.4472 9.48242C27.371 10.584 27.1425 11.4189 26.7617 11.9873V12.0576H30.4794ZM25.7597 16.4434H23.4306V12.0576H24.1513C24.7372 11.7236 25.0829 10.8096 25.1884 9.31543L25.496 4.57812H33.037V12.0576H34.4345V16.4434H32.0966V14H25.7597V16.4434ZM43.2675 12.9014C42.4296 13.7686 41.2929 14.2021 39.8574 14.2021C38.4218 14.2021 37.2851 13.7656 36.4472 12.8926C35.6093 12.0195 35.1904 10.8154 35.1904 9.28027C35.1904 7.7627 35.6122 6.56738 36.456 5.69434C37.3056 4.81543 38.4394 4.37598 39.8574 4.37598C41.2812 4.37598 42.415 4.81543 43.2587 5.69434C44.1025 6.56738 44.5243 7.7627 44.5243 9.28027C44.5243 10.8213 44.1054 12.0283 43.2675 12.9014ZM39.8574 12.2422C40.4902 12.2422 40.9911 11.9844 41.3603 11.4688C41.7294 10.9531 41.914 10.2266 41.914 9.28906C41.914 8.36328 41.7294 7.63965 41.3603 7.11816C40.9911 6.59668 40.4902 6.33594 39.8574 6.33594C39.2245 6.33594 38.7206 6.59668 38.3456 7.11816C37.9765 7.63965 37.7919 8.36328 37.7919 9.28906C37.7919 10.2266 37.9765 10.9531 38.3456 11.4688C38.7148 11.9844 39.2187 12.2422 39.8574 12.2422ZM54.3066 14H51.749V10.0801H51.6523C51.0722 10.707 50.2665 11.0205 49.2353 11.0205C48.163 11.0205 47.3193 10.71 46.704 10.0889C46.0888 9.46191 45.7812 8.6123 45.7812 7.54004V4.57812H48.3388V7.1709C48.3388 7.70996 48.4824 8.13184 48.7695 8.43652C49.0624 8.74121 49.4667 8.89355 49.9824 8.89355C50.7792 8.89355 51.3681 8.64453 51.749 8.14648V4.57812H54.3066V14ZM62.331 14V10.1416H58.7099V14H56.1523V4.57812H58.7099V8.19922H62.331V4.57812H64.8886V14H62.331ZM75.6992 14V4.57812H78.2568V14H75.6992ZM70.707 9.19238H69.2919V12.084H70.707C71.1699 12.084 71.539 11.9521 71.8144 11.6885C72.0956 11.4189 72.2363 11.0674 72.2363 10.6338C72.2363 10.2002 72.0956 9.85156 71.8144 9.58789C71.539 9.32422 71.1699 9.19238 70.707 9.19238ZM66.7343 14V4.57812H69.2919V7.30273H71.1288C72.2421 7.30273 73.1269 7.60449 73.7831 8.20801C74.4452 8.81152 74.7763 9.62598 74.7763 10.6514C74.7763 11.6768 74.4452 12.4912 73.7831 13.0947C73.1269 13.6982 72.2421 14 71.1288 14H66.7343ZM82.6074 14H80.0937V4.57812H82.6074V10.4668H82.6777L86.4218 4.57812H88.9355V14H86.4218V8.04102H86.3515L82.6074 14ZM81.4999 0.31543H83.0644C83.0761 0.790039 83.2197 1.17969 83.495 1.48438C83.7704 1.7832 84.1367 1.93262 84.5937 1.93262C85.0449 1.93262 85.4081 1.7832 85.6835 1.48438C85.9589 1.17969 86.1025 0.790039 86.1142 0.31543H87.6874C87.6874 1.18262 87.4033 1.88281 86.8349 2.41602C86.2665 2.94336 85.5195 3.20703 84.5937 3.20703C83.6679 3.20703 82.9208 2.94336 82.3525 2.41602C81.7841 1.88281 81.4999 1.18262 81.4999 0.31543ZM96.7578 14H94.3495V4.57812H97.6718L100.133 10.7305H100.194L102.655 4.57812H105.942V14H103.534V7.69824H103.473L101.029 13.4727H99.2538L96.8193 7.69824H96.7578V14ZM115.531 12.9014C114.693 13.7686 113.557 14.2021 112.121 14.2021C110.685 14.2021 109.549 13.7656 108.711 12.8926C107.873 12.0195 107.454 10.8154 107.454 9.28027C107.454 7.7627 107.876 6.56738 108.72 5.69434C109.569 4.81543 110.703 4.37598 112.121 4.37598C113.545 4.37598 114.679 4.81543 115.522 5.69434C116.366 6.56738 116.788 7.7627 116.788 9.28027C116.788 10.8213 116.369 12.0283 115.531 12.9014ZM112.121 12.2422C112.754 12.2422 113.255 11.9844 113.624 11.4688C113.993 10.9531 114.178 10.2266 114.178 9.28906C114.178 8.36328 113.993 7.63965 113.624 7.11816C113.255 6.59668 112.754 6.33594 112.121 6.33594C111.488 6.33594 110.984 6.59668 110.609 7.11816C110.24 7.63965 110.056 8.36328 110.056 9.28906C110.056 10.2266 110.24 10.9531 110.609 11.4688C110.978 11.9844 111.482 12.2422 112.121 12.2422ZM125.647 4.57812V6.51172H122.844V14H120.286V6.51172H117.474V4.57812H125.647ZM134.516 12.9014C133.678 13.7686 132.541 14.2021 131.105 14.2021C129.67 14.2021 128.533 13.7656 127.695 12.8926C126.857 12.0195 126.438 10.8154 126.438 9.28027C126.438 7.7627 126.86 6.56738 127.704 5.69434C128.554 4.81543 129.687 4.37598 131.105 4.37598C132.529 4.37598 133.663 4.81543 134.507 5.69434C135.351 6.56738 135.772 7.7627 135.772 9.28027C135.772 10.8213 135.353 12.0283 134.516 12.9014ZM131.105 12.2422C131.738 12.2422 132.239 11.9844 132.608 11.4688C132.977 10.9531 133.162 10.2266 133.162 9.28906C133.162 8.36328 132.977 7.63965 132.608 7.11816C132.239 6.59668 131.738 6.33594 131.105 6.33594C130.473 6.33594 129.969 6.59668 129.594 7.11816C129.225 7.63965 129.04 8.36328 129.04 9.28906C129.04 10.2266 129.225 10.9531 129.594 11.4688C129.963 11.9844 130.467 12.2422 131.105 12.2422ZM142.76 4.42871C143.955 4.42871 144.895 4.85938 145.581 5.7207C146.272 6.58203 146.618 7.77148 146.618 9.28906C146.618 10.8008 146.278 11.9902 145.599 12.8574C144.919 13.7188 143.987 14.1494 142.804 14.1494C142.13 14.1494 141.535 13.9971 141.019 13.6924C140.51 13.3818 140.129 12.957 139.877 12.418H139.824V17.0762H137.258V4.57812H139.789V6.22168H139.842C140.1 5.65918 140.48 5.21973 140.984 4.90332C141.494 4.58691 142.086 4.42871 142.76 4.42871ZM141.898 12.084C142.537 12.084 143.044 11.832 143.419 11.3281C143.8 10.8242 143.99 10.1445 143.99 9.28906C143.99 8.43359 143.8 7.75391 143.419 7.25C143.044 6.74023 142.537 6.48535 141.898 6.48535C141.271 6.48535 140.768 6.74316 140.387 7.25879C140.006 7.76855 139.815 8.44531 139.815 9.28906C139.815 10.1387 140.003 10.8184 140.378 11.3281C140.759 11.832 141.266 12.084 141.898 12.084ZM4.26165 32.3877H6.81927C6.87786 32.9033 7.15032 33.3223 7.63665 33.6445C8.12884 33.9609 8.72942 34.1191 9.43841 34.1191C10.1415 34.1191 10.7128 33.9697 11.1523 33.6709C11.5976 33.3662 11.8202 32.9795 11.8202 32.5107C11.8202 32.1006 11.6562 31.7695 11.3281 31.5176C10.9999 31.2656 10.4521 31.0547 9.6845 30.8848L8.03216 30.5244C5.70599 30.0264 4.5429 28.8457 4.5429 26.9824C4.5429 25.8223 4.99407 24.8848 5.89642 24.1699C6.80462 23.4551 7.97063 23.0977 9.39446 23.0977C10.8593 23.0977 12.0283 23.4463 12.9013 24.1436C13.7743 24.835 14.2226 25.7578 14.246 26.9121H11.7587C11.7177 26.3789 11.4804 25.96 11.0468 25.6553C10.6191 25.3447 10.0712 25.1895 9.40325 25.1895C8.747 25.1895 8.21673 25.333 7.81243 25.6201C7.41399 25.9072 7.21478 26.2852 7.21478 26.7539C7.21478 27.1406 7.37591 27.4541 7.69817 27.6943C8.0263 27.9346 8.55657 28.1396 9.28899 28.3096L10.8271 28.6348C12.0986 28.9043 13.0243 29.3262 13.6044 29.9004C14.1845 30.4688 14.4745 31.2363 14.4745 32.2031C14.4745 33.4336 14.0117 34.4121 13.0859 35.1387C12.1601 35.8594 10.9091 36.2197 9.33294 36.2197C7.80364 36.2197 6.58489 35.8799 5.67669 35.2002C4.77435 34.5146 4.30267 33.5771 4.26165 32.3877ZM24.5908 26.5781V36H22.1122V34.3037H22.0595C21.5673 35.5518 20.6269 36.1758 19.2382 36.1758C18.207 36.1758 17.3837 35.8623 16.7685 35.2354C16.1533 34.6025 15.8456 33.7412 15.8456 32.6514V26.5781H18.412V32.1152C18.412 32.7422 18.5615 33.2197 18.8603 33.5479C19.165 33.876 19.6015 34.04 20.1699 34.04C20.7382 34.04 21.1894 33.8525 21.5234 33.4775C21.8574 33.1025 22.0243 32.6016 22.0243 31.9746V26.5781H24.5908ZM26.0849 36V34.541L30.7783 28.5908V28.5381H26.1552V26.5781H33.7577V28.2041L29.3456 33.9873V34.0312H33.8632V36H26.0849ZM44.0673 26.5781V36H41.5888V34.3037H41.5361C41.0439 35.5518 40.1034 36.1758 38.7148 36.1758C37.6835 36.1758 36.8603 35.8623 36.245 35.2354C35.6298 34.6025 35.3222 33.7412 35.3222 32.6514V26.5781H37.8886V32.1152C37.8886 32.7422 38.038 33.2197 38.3368 33.5479C38.6415 33.876 39.0781 34.04 39.6464 34.04C40.2148 34.04 40.6659 33.8525 40.9999 33.4775C41.3339 33.1025 41.5009 32.6016 41.5009 31.9746V26.5781H44.0673ZM48.4003 30.3574L51.5995 26.5781H54.5087L50.914 30.6211L54.6845 36H51.7314L49.0331 32.168L48.3652 32.8887V36H45.7988V23.3174H48.3652V30.3574H48.4003ZM55.4667 36V26.5781H58.0331V36H55.4667ZM57.7255 25.1543C57.4618 25.4121 57.1367 25.541 56.7499 25.541C56.3632 25.541 56.038 25.4121 55.7743 25.1543C55.5107 24.8965 55.3788 24.583 55.3788 24.2139C55.3788 23.8389 55.5107 23.5254 55.7743 23.2734C56.038 23.0156 56.3632 22.8867 56.7499 22.8867C57.1367 22.8867 57.4618 23.0156 57.7255 23.2734C57.9892 23.5254 58.121 23.8389 58.121 24.2139C58.121 24.583 57.9892 24.8965 57.7255 25.1543ZM63.5351 23.3174H68.3779C70.288 23.3174 71.7734 23.8652 72.8339 24.9609C73.8945 26.0566 74.4247 27.6064 74.4247 29.6104C74.4247 31.6201 73.8915 33.1875 72.8251 34.3125C71.7646 35.4375 70.2822 36 68.3779 36H63.5351V23.3174ZM66.1894 25.5059V33.8027H68.0615C69.2509 33.8027 70.1562 33.4482 70.7773 32.7393C71.4042 32.0244 71.7177 30.9844 71.7177 29.6191C71.7177 28.2949 71.4013 27.2783 70.7685 26.5693C70.1357 25.8604 69.2333 25.5059 68.0615 25.5059H66.1894ZM78.7929 36H76.1386V23.3174H84.4443V25.5059H78.7929V28.9072H83.9521V31.0078H78.7929V36ZM90.5087 36.2812C89.2958 36.2812 88.2558 35.9561 87.3886 35.3057C86.5214 34.6494 85.9999 33.8027 85.8242 32.7656H88.4433C88.5722 33.1934 88.8271 33.5361 89.2079 33.7939C89.5947 34.0518 90.0429 34.1807 90.5527 34.1807C91.4374 34.1807 92.123 33.7793 92.6093 32.9766C93.1015 32.1738 93.33 31.0518 93.2949 29.6104H93.2685H93.2509H93.2421C93.0077 30.2432 92.5917 30.7471 91.9941 31.1221C91.3964 31.4971 90.6874 31.6846 89.8671 31.6846C88.6659 31.6846 87.664 31.2891 86.8613 30.498C86.0585 29.7012 85.6572 28.7021 85.6572 27.501C85.6572 26.2002 86.1171 25.1309 87.037 24.293C87.957 23.4492 89.1259 23.0273 90.5439 23.0273C91.4638 23.0273 92.287 23.2266 93.0136 23.625C93.746 24.0234 94.332 24.5977 94.7714 25.3477C95.4804 26.4375 95.8349 27.8379 95.8349 29.5488C95.8349 31.6523 95.3632 33.3018 94.4199 34.4971C93.4824 35.6865 92.1786 36.2812 90.5087 36.2812ZM88.9091 29.0479C89.3486 29.4756 89.8993 29.6895 90.5615 29.6895C91.2236 29.6895 91.7743 29.4756 92.2138 29.0479C92.6591 28.6143 92.8818 28.0781 92.8818 27.4395C92.8818 26.7949 92.6591 26.2529 92.2138 25.8135C91.7685 25.3682 91.2236 25.1455 90.579 25.1455C89.9286 25.1455 89.3779 25.3652 88.9267 25.8047C88.4755 26.2441 88.2499 26.7832 88.2499 27.4219C88.2499 28.0723 88.4697 28.6143 88.9091 29.0479ZM99.6494 35.6924C99.374 35.9678 99.04 36.1055 98.6474 36.1055C98.2548 36.1055 97.9208 35.9678 97.6454 35.6924C97.3701 35.417 97.2324 35.083 97.2324 34.6904C97.2324 34.2979 97.3701 33.9639 97.6454 33.6885C97.9208 33.4131 98.2548 33.2754 98.6474 33.2754C99.04 33.2754 99.374 33.4131 99.6494 33.6885C99.9247 33.9639 100.062 34.2979 100.062 34.6904C100.062 35.083 99.9247 35.417 99.6494 35.6924ZM106.61 36.2812C105.397 36.2812 104.357 35.9561 103.49 35.3057C102.623 34.6494 102.102 33.8027 101.926 32.7656H104.545C104.674 33.1934 104.929 33.5361 105.31 33.7939C105.696 34.0518 106.144 34.1807 106.654 34.1807C107.539 34.1807 108.225 33.7793 108.711 32.9766C109.203 32.1738 109.432 31.0518 109.396 29.6104H109.37H109.352H109.344C109.109 30.2432 108.693 30.7471 108.096 31.1221C107.498 31.4971 106.789 31.6846 105.969 31.6846C104.768 31.6846 103.766 31.2891 102.963 30.498C102.16 29.7012 101.759 28.7021 101.759 27.501C101.759 26.2002 102.219 25.1309 103.139 24.293C104.059 23.4492 105.227 23.0273 106.645 23.0273C107.565 23.0273 108.389 23.2266 109.115 23.625C109.848 24.0234 110.434 24.5977 110.873 25.3477C111.582 26.4375 111.936 27.8379 111.936 29.5488C111.936 31.6523 111.465 33.3018 110.521 34.4971C109.584 35.6865 108.28 36.2812 106.61 36.2812ZM105.011 29.0479C105.45 29.4756 106.001 29.6895 106.663 29.6895C107.325 29.6895 107.876 29.4756 108.315 29.0479C108.761 28.6143 108.983 28.0781 108.983 27.4395C108.983 26.7949 108.761 26.2529 108.315 25.8135C107.87 25.3682 107.325 25.1455 106.681 25.1455C106.03 25.1455 105.479 25.3652 105.028 25.8047C104.577 26.2441 104.352 26.7832 104.352 27.4219C104.352 28.0723 104.571 28.6143 105.011 29.0479ZM119.354 36H113.738V23.3174H119.258C120.447 23.3174 121.391 23.6016 122.088 24.1699C122.785 24.7383 123.134 25.5088 123.134 26.4814C123.134 27.1729 122.905 27.7793 122.448 28.3008C121.997 28.8223 121.432 29.1328 120.752 29.2324V29.3027C121.619 29.3672 122.334 29.6865 122.896 30.2607C123.459 30.835 123.74 31.5381 123.74 32.3701C123.74 33.4893 123.348 34.374 122.562 35.0244C121.777 35.6748 120.708 36 119.354 36ZM116.393 25.2949V28.5908H118.3C119.009 28.5908 119.557 28.4443 119.943 28.1514C120.33 27.8525 120.523 27.4336 120.523 26.8945C120.523 26.3848 120.353 25.9922 120.014 25.7168C119.674 25.4355 119.193 25.2949 118.572 25.2949H116.393ZM116.393 34.0225H118.678C119.445 34.0225 120.028 33.8643 120.427 33.5479C120.831 33.2256 121.033 32.7627 121.033 32.1592C121.033 31.5674 120.825 31.1162 120.409 30.8057C119.999 30.4951 119.401 30.3398 118.616 30.3398H116.393V34.0225ZM127.906 25.3916V29.4346H130.191C130.859 29.4346 131.378 29.2559 131.747 28.8984C132.122 28.541 132.31 28.0459 132.31 27.4131C132.31 26.7979 132.116 26.3086 131.729 25.9453C131.343 25.5762 130.821 25.3916 130.165 25.3916H127.906ZM127.906 31.3594V36H125.252V23.3174H130.446C131.893 23.3174 133.018 23.6777 133.821 24.3984C134.63 25.1133 135.034 26.1006 135.034 27.3604C135.034 28.1865 134.829 28.9248 134.419 29.5752C134.015 30.2197 133.452 30.6826 132.731 30.9639L135.403 36H132.397L130.033 31.3594H127.906ZM136.309 32.3877H138.866C138.925 32.9033 139.197 33.3223 139.684 33.6445C140.176 33.9609 140.776 34.1191 141.485 34.1191C142.188 34.1191 142.76 33.9697 143.199 33.6709C143.644 33.3662 143.867 32.9795 143.867 32.5107C143.867 32.1006 143.703 31.7695 143.375 31.5176C143.047 31.2656 142.499 31.0547 141.731 30.8848L140.079 30.5244C137.753 30.0264 136.59 28.8457 136.59 26.9824C136.59 25.8223 137.041 24.8848 137.943 24.1699C138.852 23.4551 140.018 23.0977 141.441 23.0977C142.906 23.0977 144.075 23.4463 144.948 24.1436C145.821 24.835 146.269 25.7578 146.293 26.9121H143.806C143.765 26.3789 143.527 25.96 143.094 25.6553C142.666 25.3447 142.118 25.1895 141.45 25.1895C140.794 25.1895 140.264 25.333 139.859 25.6201C139.461 25.9072 139.262 26.2852 139.262 26.7539C139.262 27.1406 139.423 27.4541 139.745 27.6943C140.073 27.9346 140.603 28.1396 141.336 28.3096L142.874 28.6348C144.145 28.9043 145.071 29.3262 145.651 29.9004C146.231 30.4688 146.521 31.2363 146.521 32.2031C146.521 33.4336 146.059 34.4121 145.133 35.1387C144.207 35.8594 142.956 36.2197 141.38 36.2197C139.851 36.2197 138.632 35.8799 137.724 35.2002C136.821 34.5146 136.35 33.5771 136.309 32.3877Z" fill="#2F3035"/>
</svg>
